<svg xmlns="http://www.w3.org/2000/svg" viewBox="0 0 102.85 133.29"><path fill="currentColor" d="M89.68 66.23c19.08-12.06 17.88-47.96-6.49-58.07C61.34-.9 30.62 6.56 12.46 0c-1.07 6.26 1.68 14.04 16.48 16.94s54.78-1.22 55.09 9.16c-10.99-8.55-33.57-2.75-58.14-7.78 7.48 32.5 57.53 11.45 58.45 24.57-6.71-6.1-19.23-.92-39.52-4.12 9 28.23 36.17 6.26 44.87 27.47Zm-21.8 20.49v46.58H48.43V92.4c0-12.21-5.25-16.19-12.64-16.19-8.24 0-16.33 5.4-16.33 19.6v37.49H0V31.2h19.45v43.17c4.54-9.09 12.78-13.49 22.86-13.49 14.77 0 25.56 8.66 25.56 25.84Z"/></svg>